<svg xmlns="http://www.w3.org/2000/svg" xml:space="preserve" id="Layer_1" x="0" y="0" version="1.1" viewBox="0 0 512 512"><path fill="#fff" d="M26.966 10.458h458.067v491.084H26.966z"/><path fill="#1eb615" d="M71.936 54.989h368.127v349.302H71.936z"/><path d="M71.936 414.75h368.127c5.776 0 10.458-4.682 10.458-10.458V54.989c0-5.776-4.682-10.458-10.458-10.458H71.936c-5.776 0-10.458 4.682-10.458 10.458v349.302c0 5.776 4.682 10.459 10.458 10.459zM82.395 65.447h347.211v328.386H185.153v-63.525l34.272 34.273a10.426 10.426 0 0 0 7.395 3.063c2.676 0 5.354-1.022 7.395-3.063 4.084-4.084 4.085-10.706.001-14.79l-49.063-49.064v-34.768l34.273 34.273a10.426 10.426 0 0 0 7.395 3.063c2.676 0 5.354-1.022 7.395-3.063 4.084-4.084 4.084-10.706-.001-14.79l-52.127-52.126c-4.084-4.084-10.705-4.084-14.79 0l-52.127 52.126c-4.084 4.084-4.085 10.706 0 14.79 4.086 4.085 10.707 4.085 14.79.001l34.273-34.273v34.768l-49.063 49.064c-4.084 4.084-4.084 10.706 0 14.79s10.706 4.084 14.79 0l34.272-34.273v63.525h-81.84V65.447z"/><path d="M485.034 0H26.966C21.19 0 16.508 4.682 16.508 10.458v491.084c0 5.776 4.682 10.458 10.458 10.458h458.067c5.776 0 10.458-4.682 10.458-10.458V10.458C495.492 4.682 490.81 0 485.034 0zm-10.459 491.084H37.425V20.916h437.151v470.168z"/><path d="M212.076 446.114h-4.682c-5.776 0-10.458 4.682-10.458 10.458s4.682 10.458 10.458 10.458h4.682c5.776 0 10.458-4.682 10.458-10.458s-4.682-10.458-10.458-10.458zM173.56 446.114H71.979c-5.776 0-10.458 4.682-10.458 10.458s4.682 10.458 10.458 10.458H173.56c5.776 0 10.458-4.682 10.458-10.458.001-5.776-4.682-10.458-10.458-10.458zM285.283 334.133c-5.776 0-10.458 4.682-10.458 10.458s4.682 10.458 10.458 10.458h104.582c5.776 0 10.458-4.682 10.458-10.458s-4.682-10.458-10.458-10.458h-41.833V270.61l34.272 34.273a10.426 10.426 0 0 0 7.395 3.063c2.676 0 5.354-1.022 7.395-3.063 4.084-4.084 4.085-10.706 0-14.79l-49.063-49.064v-34.768l34.273 34.272a10.426 10.426 0 0 0 7.395 3.063c2.676 0 5.354-1.022 7.395-3.063 4.084-4.084 4.084-10.706 0-14.79l-49.063-49.062v-34.768l34.272 34.273c2.042 2.042 4.719 3.063 7.395 3.063s5.354-1.021 7.395-3.063c4.084-4.084 4.084-10.706 0-14.791l-52.127-52.127c-4.084-4.084-10.706-4.084-14.791 0l-52.127 52.127c-4.084 4.084-4.084 10.706 0 14.791 4.084 4.084 10.706 4.084 14.791 0l34.273-34.273v34.768l-49.063 49.062c-4.084 4.084-4.085 10.706 0 14.79 4.085 4.085 10.707 4.085 14.79.001l34.273-34.272v34.768l-49.063 49.064c-4.084 4.084-4.084 10.706 0 14.79s10.706 4.084 14.79-.001l34.273-34.273v63.523h-41.829z"/></svg>